<svg xmlns="http://www.w3.org/2000/svg" width="68" height="68" viewBox="0 0 68 68" fill="none">
  <path d="M0.257812 33.9174C0.257812 15.4158 15.2563 0.417358 33.7578 0.417358C52.2594 0.417358 67.2578 15.4158 67.2578 33.9174C67.2578 52.4189 52.2594 67.4174 33.7578 67.4174C15.2563 67.4174 0.257812 52.4189 0.257812 33.9174Z" fill="white"/>
  <path d="M33.761 12.2996L14.5905 31.0554C14.3983 31.2434 14.5315 31.5698 14.8003 31.5698H18.0368V47.4304C18.0368 49.6396 19.8277 51.4304 22.0368 51.4304H45.5266C47.7357 51.4304 49.5266 49.6396 49.5266 47.4304V31.5698H52.7266C52.9939 31.5698 53.1277 31.2467 52.9387 31.0577L34.1829 12.3019C34.0667 12.1857 33.8785 12.1846 33.761 12.2996Z" fill="url(#paint0_linear_2_1897)" stroke="black" stroke-width="2" stroke-linecap="round"/>
  <path d="M29.2722 31.6342H38.2434V40.6054H29.2722V31.6342Z" fill="white" stroke="black" stroke-width="2" stroke-linecap="round" stroke-linejoin="round"/>
  <defs>
    <linearGradient id="paint0_linear_2_1897" x1="33.7578" y1="31.7613" x2="53.4374" y2="44.076" gradientUnits="userSpaceOnUse">
      <stop stop-color="#FF6A14"/>
      <stop offset="1" stop-color="#EF9E00"/>
    </linearGradient>
  </defs>
</svg>