<svg xmlns="http://www.w3.org/2000/svg" xmlns:xlink="http://www.w3.org/1999/xlink" version="1.1" x="0px" y="0px" viewBox="0 0 100 125" style="enable-background:new 0 0 100 100;" xml:space="preserve"><g><g><g><path d="M71.6,74.8c-0.5,0-0.9-0.1-1.4-0.4c-1.3-0.8-1.7-2.4-1-3.7c7.5-12.8,7.4-28.7-0.1-41.5c-0.8-1.3-0.3-2.9,1-3.7     c1.3-0.8,2.9-0.3,3.7,1c8.5,14.5,8.6,32.4,0.1,47C73.4,74.3,72.5,74.8,71.6,74.8z"/></g><g><path d="M61.6,68.2c-0.4,0-0.9-0.1-1.3-0.3c-1.3-0.7-1.8-2.4-1.1-3.7c4.8-8.8,4.8-19.6-0.1-28.3c-0.7-1.3-0.3-2.9,1-3.7     c1.3-0.7,3-0.3,3.7,1c5.8,10.3,5.9,23.2,0.1,33.6C63.5,67.7,62.6,68.2,61.6,68.2z"/></g><g><path d="M61.6,68.2c-0.4,0-0.9-0.1-1.3-0.3c-1.3-0.7-1.8-2.4-1.1-3.7c4.8-8.8,4.8-19.6-0.1-28.3c-0.7-1.3-0.3-2.9,1-3.7     c1.3-0.7,3-0.3,3.7,1c5.8,10.3,5.9,23.2,0.1,33.6C63.5,67.7,62.6,68.2,61.6,68.2z"/></g></g><g><path d="M47.6,80.7H25.8c-3.3,0-6-2.7-6-6V25.3c0-3.3,2.7-6,6-6h21.8c3.3,0,6,2.7,6,6v49.4C53.6,78,50.9,80.7,47.6,80.7z     M25.8,24.7c-0.3,0-0.6,0.3-0.6,0.6v49.4c0,0.3,0.3,0.6,0.6,0.6h21.8c0.3,0,0.6-0.3,0.6-0.6V25.3c0-0.3-0.3-0.6-0.6-0.6H25.8z"/></g><g><path d="M50.9,72H22.5c-1.5,0-2.7-1.2-2.7-2.7v-39c0-1.5,1.2-2.7,2.7-2.7h28.4c1.5,0,2.7,1.2,2.7,2.7v39    C53.6,70.7,52.4,72,50.9,72z M25.2,66.6h23V32.9h-23V66.6z"/></g></g></svg>