<svg xmlns="http://www.w3.org/2000/svg" width="114" height="117" viewBox="0 0 114 117" fill="none">
  <g clip-path="url(#clip0_543_6248)">
    <path d="M19.8193 92.7702C19.8193 95.3339 20.8114 97.7927 22.5774 99.6055C24.3434 101.418 26.7385 102.437 29.236 102.437C31.7335 102.437 34.1286 101.418 35.8946 99.6055C37.6606 97.7927 38.6527 95.3339 38.6527 92.7702C38.6527 90.2064 37.6606 87.7477 35.8946 85.9348C34.1286 84.122 31.7335 83.1035 29.236 83.1035C26.7385 83.1035 24.3434 84.122 22.5774 85.9348C20.8114 87.7477 19.8193 90.2064 19.8193 92.7702Z" stroke="black" stroke-width="2" stroke-linecap="round" stroke-linejoin="round"/>
    <path d="M71.6113 92.7702C71.6113 95.3339 72.6034 97.7927 74.3694 99.6055C76.1354 101.418 78.5305 102.437 81.028 102.437C83.5254 102.437 85.9206 101.418 87.6866 99.6055C89.4525 97.7927 90.4447 95.3339 90.4447 92.7702C90.4447 90.2064 89.4525 87.7477 87.6866 85.9348C85.9206 84.122 83.5254 83.1035 81.028 83.1035C78.5305 83.1035 76.1354 84.122 74.3694 85.9348C72.6034 87.7477 71.6113 90.2064 71.6113 92.7702Z" stroke="black" stroke-width="2" stroke-linecap="round" stroke-linejoin="round"/>
    <path d="M81.0277 83.1032H29.236V15.4365H19.8193" stroke="black" strokeWidth="2" strokeLinecap="round" strokeLinejoin="round"/>
    <path d="M29.2363 25.1035L60.3969 27.4069M29.2363 63.7702H90.4447L92.0369 55.9091" stroke="black" strokeWidth="2" strokeLinecap="round" strokeLinejoin="round"/>
    <path d="M89.7107 49.2691L109.455 29.9138C110.666 28.7389 111.629 27.3333 112.287 25.78C112.946 24.2267 113.287 22.5572 113.29 20.8701C113.292 19.1829 112.957 17.5124 112.303 15.9569C111.65 14.4015 110.691 12.9928 109.484 11.8139C107.022 9.40536 103.716 8.05377 100.271 8.04717C96.8259 8.04056 93.5147 9.37946 91.0427 11.7786L89.7225 13.0752L88.4082 11.7786C85.9456 9.37176 82.6408 8.02128 79.1974 8.01467C75.7541 8.00807 72.4441 9.34586 69.9723 11.7432C68.7612 12.9177 67.7976 14.323 67.1385 15.8761C66.4794 17.4292 66.1381 19.0985 66.1348 20.7857C66.1315 22.4728 66.4662 24.1435 67.1193 25.6992C67.7723 27.2548 68.7304 28.6638 69.937 29.8431L89.7107 49.2691Z" fill="url(#paint0_linear_543_6248)"/>
    <path d="M80.4629 25.6708L87.0509 32.2584L98.9626 20.3467" stroke="white" strokeWidth="2" strokeLinecap="round"/>
  </g>
  <defs>
    <linearGradient id="paint0_linear_543_6248" x1="89.7122" y1="28.6419" x2="111.421" y2="44.1501" gradientUnits="userSpaceOnUse">
      <stop stop-color="#FF6A14"/>
      <stop offset="1" stop-color="#EF9E00"/>
    </linearGradient>
    <clipPath id="clip0_543_6248">
      <rect width="113" height="116" fill="white" transform="translate(0.986328 0.936523)"/>
    </clipPath>
  </defs>
</svg>